<svg xmlns="http://www.w3.org/2000/svg" viewBox="0 0 64 64" width="64" height="64">
  <!-- Sun -->
  <circle cx="26" cy="26" r="12" fill="#FDB813" />
  <g stroke="#FDB813" stroke-width="3" stroke-linecap="round">
    <line x1="26" y1="6" x2="26" y2="10" />
    <line x1="26" y1="42" x2="26" y2="46" />
    <line x1="6" y1="26" x2="10" y2="26" />
    <line x1="42" y1="26" x2="46" y2="26" />
    <line x1="12" y1="12" x2="15" y2="15" />
    <line x1="37" y1="37" x2="40" y2="40" />
    <line x1="12" y1="40" x2="15" y2="37" />
    <line x1="37" y1="15" x2="40" y2="12" />
  </g>
  <!-- Cloud -->
  <path d="M46 50H22a10 10 0 0 1-2-19.8A14 14 0 0 1 45.6 26 11 11 0 0 1 46 50z" fill="#E0F2FE" stroke="#90CDF4" stroke-width="2" />
</svg>

